PathFileType	4	(X/Y/Z)	C:\Users\u0145647\OneDrive - KU Leuven\KU Leuven\c3d2osim\CP4\T0\Data\Processed\ViconC3D_CP4_2\CP4_T0_15_gapFilled.trc
DataRate	CameraRate	NumFrames	NumMarkers	Units	OrigDataRate	OrigDataStartFrame	OrigNumFrames
100.000000	100.000000	10	47	mm	100.000000	184	488
Frame#	Time	C7			T10			CLAV			STRN			LSHO			RSHO			RBAK			LASI			RASI			LPSI			RPSI			LLAT			RLAT			LF1			LF2			LF3			LTHI			LKNE			LMEK			RF1			RF2			RF3			RTHI			RKNE			RMEK			LT1			LT2			LT3			LTIB			LANK			LMM			RT1			RT2			RT3			RTIB			RANK			RMM			LHEE			LSTL			LLCA			LTOE			LCM5			RHEE			RSTL			RLCA			RTOE			RCM5
		X1	Y1	Z1	X2	Y2	Z2	X3	Y3	Z3	X4	Y4	Z4	X5	Y5	Z5	X6	Y6	Z6	X7	Y7	Z7	X8	Y8	Z8	X9	Y9	Z9	X10	Y10	Z10	X11	Y11	Z11	X12	Y12	Z12	X13	Y13	Z13	X14	Y14	Z14	X15	Y15	Z15	X16	Y16	Z16	X17	Y17	Z17	X18	Y18	Z18	X19	Y19	Z19	X20	Y20	Z20	X21	Y21	Z21	X22	Y22	Z22	X23	Y23	Z23	X24	Y24	Z24	X25	Y25	Z25	X26	Y26	Z26	X27	Y27	Z27	X28	Y28	Z28	X29	Y29	Z29	X30	Y30	Z30	X31	Y31	Z31	X32	Y32	Z32	X33	Y33	Z33	X34	Y34	Z34	X35	Y35	Z35	X36	Y36	Z36	X37	Y37	Z37	X38	Y38	Z38	X39	Y39	Z39	X40	Y40	Z40	X41	Y41	Z41	X42	Y42	Z42	X43	Y43	Z43	X44	Y44	Z44	X45	Y45	Z45	X46	Y46	Z46	X47	Y47	Z47

184	1.83	-7.7513	1401.9	-238.66	-25.621	1145.8	-260.99	110.29	1324.1	-216.5	141.66	1173.5	-209.14	92.601	1368.8	-437.75	-10.842	1355.9	-46.69	-73.076	1314.6	-135.49	142.49	882.26	-281.48	46.553	877.03	-109.37	-32.976	939.26	-311.72	-67.213	940.93	-245.35	123.96	950.57	-356.97	-15.842	958.69	-93.832	209.75	656.61	-350.07	182.85	692.68	-365.2	182.02	641.51	-362.24	229.1	571.48	-386.72	263.05	465.86	-292.07	NaN	NaN	NaN	-51.754	599.26	-93.012	-27.506	629.49	-93.007	-88.393	638.75	-98.493	-49.218	537.5	-53.397	-56.45	411.77	-122.4	NaN	NaN	NaN	196.3	298.8	-317.13	241.62	330.83	-292.54	198.5	343.07	-318.6	245.76	218.59	-315.55	125.18	75.015	-289.65	128.69	85.022	-200.34	-176.14	326.78	-96.242	-129.91	336.47	-115.43	-156.13	376.53	-94.46	-217.41	267.67	-54.507	-381.37	178.37	-98.892	-368.91	199.74	-182.18	69.163	61.555	-248.45	124.31	53.985	-203.89	126.33	47.009	-283.13	245.77	45.281	-237.71	235.01	36.201	-285.66	-416.03	228.79	-123.25	-398.06	183.38	-178.89	-400.72	161.46	-103.65	-360.42	66.512	-183.16	-384.95	55.396	-133.15
185	1.84	9.221	1406.9	-237.26	-7.6008	1150.8	-260.72	127.35	1329.6	-214.88	159.11	1179	-207.66	110.26	1374.2	-436.07	4.9294	1360.7	-45.614	-56.276	1319.4	-135.02	161.11	887.3	-283.14	65.896	881.52	-110.4	-14.542	944.3	-311.96	-49.246	946.23	-245.39	142.09	956.71	-356.71	3.314	963.34	-94.138	222.39	657.14	-350.82	196.53	693.96	-366.2	194.09	642.77	-362.89	239.34	571.08	-387.51	268.95	463.96	-292.74	NaN	NaN	NaN	-24.809	603.4	-92.101	-1.4295	634.2	-91.784	-62.536	641.99	-98.396	-21.823	542.42	-51.594	-22.173	415.22	-119.96	NaN	NaN	NaN	199	297.82	-318.16	244.83	329.36	-293.57	201.64	342.17	-319.48	247.94	216.84	-315.81	125.4	74.925	-290.02	128.74	85.24	-200.91	-140.69	328.7	-93.645	-94.723	338.92	-112.64	-121.09	378.64	-91.739	-180.92	269.54	-51.292	-343.47	177.72	-94.154	-332.54	199.44	-177.43	69.121	62.177	-249.06	124.44	54.138	-204.31	126.34	46.959	-283.45	245.63	45.119	-237.92	235.11	36.078	-285.91	-380.06	227.18	-118.12	-361.23	182.28	-173.94	-362.45	160.29	-98.642	-317.93	67.139	-177.55	-342.21	55.038	-127.83
186	1.85	26.173	1411.9	-235.65	9.9375	1156	-260.41	143.98	1334.7	-212.9	176.33	1184.7	-206.22	127.68	1379.8	-434.17	20.601	1365.5	-44.504	-39.571	1324.3	-134.36	179.28	892.56	-285.02	85.333	886.02	-111.41	3.3585	949.39	-311.87	-30.879	951.25	-245.05	159.84	963.58	-357.03	22.518	967.94	-94.363	234.27	657.32	-351.47	209.37	695	-366.9	205.68	644.08	-364	247.77	570.51	-387.55	274.18	462.49	-293.88	NaN	NaN	NaN	2.0172	608.29	-91.3	24.378	639.43	-90.68	-37.014	645.7	-98.316	5.9387	547.4	-50.103	12.77	419.54	-117.54	NaN	NaN	NaN	201.61	296.93	-319.13	247.68	328.1	-294.86	204.46	341.29	-320.94	249.76	215.52	-316.21	125.59	74.836	-290.47	128.93	85.563	-201.36	-104.73	332.63	-89.964	-58.675	342.51	-110.16	-85.615	382.33	-89.532	-143.87	273.59	-47.485	-305.55	178.83	-89.82	-294.65	199.5	-173.6	69.053	62.439	-249.64	124.43	54.485	-204.77	126.41	46.95	-283.84	245.68	45.215	-238.11	235.13	35.963	-286.17	-342.99	227.04	-114.54	-323.09	181.92	-169.79	-323.31	160.34	-94.255	-275.75	67.939	-171.01	-299.98	56.178	-121.45
187	1.86	43.042	1416.9	-234.24	27.224	1161	-260.08	160.54	1339.9	-211.14	193.33	1190	-204.76	145.03	1385.2	-432.3	36.325	1370.2	-43.359	-22.955	1329.2	-133.58	197.12	897.95	-286.77	104.83	890.74	-112.29	21.126	954.13	-311.59	-12.726	956.12	-244.45	177.09	970.67	-357.83	41.635	972.5	-94.245	245.61	658.02	-352.81	221.34	696.12	-367.61	216.39	644.99	-364.77	255.86	570.81	-388.75	278.71	461.23	-295.23	NaN	NaN	NaN	29.268	613.12	-90.57	50.143	645.04	-89.486	-11.11	649.23	-98.349	34.268	552.47	-49.067	48.138	424.83	-115.5	NaN	NaN	NaN	204.42	295.84	-320.14	250.47	327.07	-296.02	207.5	340.42	-322.22	251.72	214.21	-316.06	125.76	74.751	-291.02	129.08	85.977	-201.99	-67.817	336.86	-86.879	-21.85	346.96	-106.99	-49.995	387.31	-87.569	-106.73	277.33	-44.162	-267.28	181.42	-85.874	-256.05	200.44	-170.08	69.159	62.888	-250.27	124.59	54.968	-205.43	126.52	46.897	-284.28	245.66	45.211	-238.3	235.12	35.901	-286.4	-305.38	228.29	-112.19	-284.38	182.24	-166.34	-284.61	162.56	-90.398	-233.04	69.783	-163.76	-257.6	59.039	-114.06
188	1.87	59.674	1421.7	-232.55	44.332	1165.7	-259.55	177.06	1344.8	-209.45	210.22	1195.2	-203.28	162.3	1390.7	-430.36	52.123	1374.8	-42.165	-6.2926	1334	-132.66	214.59	903.17	-288.69	124.43	895.46	-112.94	38.395	958.89	-311.09	5.2985	960.7	-243.65	193.83	977.17	-358.52	61.123	976.7	-94.188	256.3	658.87	-354.03	233.38	697.82	-368.78	226.52	646.38	-365.88	263.1	570.73	-389.66	282.67	460.08	-296.73	NaN	NaN	NaN	57.125	617.93	-89.828	76.595	650.62	-88.66	15.349	652.7	-98.16	63.066	557.65	-48.108	83.921	430.91	-113.31	NaN	NaN	NaN	206.57	295.2	-321.39	252.57	326.01	-296.89	210.36	339.69	-323.82	253.2	212.93	-316.75	125.72	74.672	-291.84	129.23	86.511	-202.52	-30.817	341.5	-84.524	15.231	352.07	-104.7	-14.095	392.68	-85.881	-68.926	281.34	-41.481	-228.49	185.1	-82.914	-217.14	202.06	-167.45	69.223	63.276	-250.97	124.48	55.525	-205.92	126.56	46.96	-284.78	245.59	45.247	-238.55	235.16	35.706	-286.74	-267.45	230.54	-110.61	-245.26	183.42	-163.4	-245.54	165.98	-87.29	-189.76	72.632	-156.05	-214.65	63.2	-106.46
189	1.88	76.764	1426.2	-231.1	61.221	1170	-258.9	193.56	1349.3	-207.63	226.91	1199.9	-202.07	179.49	1395.9	-428.41	67.808	1379.1	-40.931	10.341	1338.6	-131.73	231.81	908.12	-290.35	144.11	900.15	-113.48	55.473	963.32	-310.47	23.245	964.88	-242.59	210.17	983.27	-359.39	79.932	980.74	-94.024	266.75	659.56	-355.34	245.15	699.47	-369.71	236.49	648.23	-367.74	269.86	571.91	-391.47	286.41	459.34	-298.7	NaN	NaN	NaN	85.357	622.92	-88.866	103.71	656.29	-87.876	42.204	656.13	-97.45	93.081	562.79	-46.922	120.18	437.14	-111.32	NaN	NaN	NaN	208.46	295	-323.19	254.61	325.14	-298.52	212.88	339.3	-325.65	254.15	212.25	-317.81	125.94	74.662	-292.55	129.68	87.188	-203.48	6.52	346.7	-82.433	52.777	357.43	-101.99	22.68	397.87	-84.337	-31.105	286.51	-39.028	-189.68	189.37	-80.202	-177.27	204.42	-165.18	69.396	63.728	-251.47	124.92	56.031	-206.06	126.58	47.018	-285.27	245.33	45.196	-238.89	235.14	35.492	-287.13	-229.2	232.99	-109.93	-205.46	184.52	-161.06	-205.92	169.59	-84.444	-146.44	75.898	-148.22	-171.49	68.252	-98.598
190	1.89	93.412	1430.3	-229.64	77.711	1174	-258.23	210.07	1353.3	-205.97	243.64	1204.2	-200.73	196.7	1400.4	-426.38	84.201	1382.9	-39.784	27.091	1343	-130.8	249.03	912.73	-292.11	163.82	904.56	-113.9	72.41	967.31	-309.71	41.025	968.5	-241.3	226.38	988.53	-360.12	98.977	984.47	-93.618	277.15	660.53	-356.74	257.05	701.45	-370.78	245.96	650.05	-367.77	276.34	573.35	-393.32	290.01	458.82	-300.87	NaN	NaN	NaN	113.83	627.83	-87.662	130.28	662.01	-86.475	69.609	659.32	-97.188	123.75	567.87	-45.577	156.52	443.77	-109.24	NaN	NaN	NaN	209.49	295.06	-324.97	256.28	325.07	-300.81	214.56	339.36	-327.58	254.59	212.01	-319.99	126.14	74.847	-293.36	129.76	87.939	-204.44	43.982	352.1	-80.62	90.439	363.09	-99.647	59.474	403.4	-82.766	6.312	292.82	-36.337	-150.53	193.48	-77.885	-137.4	205.87	-163.53	69.378	64.432	-252.49	124.69	57.005	-207.22	126.53	47.256	-285.93	245.19	45.293	-239.46	235.19	35.342	-287.52	-190.18	234.97	-109.78	-164.98	186.37	-159.04	-165.95	173.01	-82.177	-102.7	79.387	-140.9	-128.35	73.352	-91.466
191	1.9	110.43	1433.7	-228.17	94.367	1177.4	-257.55	226.69	1356.7	-204.54	260.28	1207.7	-199.76	213.98	1404.5	-424.5	100.24	1386.4	-38.583	43.927	1346.8	-129.92	265.68	916.82	-293.49	183.42	908.32	-114.01	89.126	970.89	-308.73	58.467	971.76	-239.77	242.38	993.18	-360.87	118.14	987.63	-93.124	287.64	661.51	-358.06	269.02	703.24	-371.4	255.96	652.12	-369.2	282.56	574.48	-394.97	292.92	458.5	-303.43	NaN	NaN	NaN	142.91	632.37	-86.505	158.09	667.66	-85.375	97.186	662.19	-95.745	154.53	573.15	-43.801	192.76	450.45	-106.94	NaN	NaN	NaN	210.19	295.51	-327.29	257.37	325.06	-303.23	215.42	339.86	-329.75	254.59	212.31	-322.91	126.41	75.094	-294.29	130.18	88.847	-205.35	81.614	357.48	-78.826	128.33	368.77	-97.401	96.491	408.91	-81.594	44.081	298.55	-34.019	-110.4	196.63	-76.115	-96.604	207.04	-161.84	69.501	65.334	-253.33	124.93	57.892	-207.97	126.62	47.592	-286.55	245.15	45.304	-239.93	235.16	35.054	-287.85	-150.81	236.26	-109.57	-124.43	186.5	-157.56	-125.59	175.69	-80.089	-58.727	82.581	-135.12	-84.025	77.743	-85.504
192	1.91	127.41	1436.6	-226.88	110.8	1180.3	-256.77	243.35	1359.3	-203.1	276.85	1210.6	-198.8	231.33	1407.9	-422.62	117.19	1389.3	-37.423	60.839	1350.2	-129.12	282.13	920.3	-294.77	203.17	911.24	-114.74	105.71	973.85	-307.58	76.495	974.11	-237.93	258.18	997.02	-361.67	137.17	990.29	-92.519	298.35	662.2	-359.33	281.38	705.08	-372.39	266.18	654.05	-370.85	289.92	576.44	-397.14	295.43	457.96	-306.54	NaN	NaN	NaN	171.35	636.96	-84.198	185.61	673.19	-84.111	125.04	664.82	-94.448	185.58	578.12	-41.951	228.72	457.07	-104.48	NaN	NaN	NaN	210.72	296.07	-329.45	258.7	325.51	-306.46	216	340.67	-332.12	254.45	212.63	-326.27	126.66	75.62	-295.09	130.68	89.891	-206.32	119.31	362.52	-77.245	165.98	374.24	-95.177	133.39	414.23	-80.294	82.515	303.71	-31.591	-70.28	198.93	-74.524	-55.418	207.66	-160.43	69.7	66.306	-253.82	125.23	58.968	-208.68	126.8	48.216	-287.22	245.14	45.307	-240.49	235.3	34.967	-288.41	-110.99	236.45	-109.27	-82.853	186.33	-155.98	-84.2	177.01	-78.594	-14.327	85.268	-130.27	-39.418	81.302	-80.526
193	1.92	144.46	1438.8	-225.67	127.11	1182.7	-255.98	260.25	1361.3	-201.83	293.43	1212.6	-197.86	248.56	1410.6	-420.72	133.86	1391.7	-36.342	77.905	1353	-128.34	298.35	923.16	-296.19	222.92	913.59	-115.24	122.43	976.1	-305.92	94.231	975.88	-235.84	273.7	999.99	-362.47	156.18	992.17	-91.687	308.89	662.53	-360.6	293.33	706.35	-373.36	276.4	655.45	-372.01	297.36	577.62	-398.91	298.98	457.69	-309.64	NaN	NaN	NaN	199.77	641.56	-81.751	213.31	677.91	-82.699	152.24	667.26	-92.404	216.32	582.96	-39.487	264.08	463.82	-102.2	NaN	NaN	NaN	211.69	296.55	-331.75	260.17	325.71	-309.41	217.01	341.2	-334.18	254.59	212.86	-329.28	126.96	76.29	-295.79	131.17	91.246	-207.03	156.89	367.46	-75.245	202.77	378.82	-94.677	169.94	419.15	-79.104	120.77	308.46	-29.554	-29.655	199.78	-73.244	-13.697	207.41	-159.27	70.025	67.62	-254.32	125.59	60.164	-209.3	127.07	49.001	-288.08	245.13	45.297	-241.15	235.34	34.742	-288.97	-70.622	235.19	-109.2	-40.672	185.2	-154.79	-42.645	177.32	-77.315	30.895	87.132	-126.43	5.6526	83.608	-76.772
